PathFileType	4	(X/Y/Z)	c:/Users/goper/Files/vsCode/490R/osim_files/A04/A04_SSWS_04.trc
DataRate	CameraRate	NumFrames	NumMarkers	Units                	OrigDataRate	OrigDataStartFrame	OrigNumFrames
120.00	120.00	8	36	mm	120.0	847	1692
                Frame#	Time	LPSIS			LASIS			LTH1			LTH2			LTH3			LTH4			LLFE			LMFE			LSH1			LSH2			LSH3			LSH4			LLMAL			LMMAL			LCAL			LMTP5			LTOE			LMTP1			RPSIS			RASIS			RTH1			RTH2			RTH3			RTH4			RLFE			RMFE			RSH1			RSH2			RSH3			RSH4			RLMAL			RMMAL			RCAL			RMTP1			RTOE			RMTP5		
		X1	Y1	Z1	X2	Y2	Z2	X3	Y3	Z3	X4	Y4	Z4	X5	Y5	Z5	X6	Y6	Z6	X7	Y7	Z7	X8	Y8	Z8	X9	Y9	Z9	X10	Y10	Z10	X11	Y11	Z11	X12	Y12	Z12	X13	Y13	Z13	X14	Y14	Z14	X15	Y15	Z15	X16	Y16	Z16	X17	Y17	Z17	X18	Y18	Z18	X19	Y19	Z19	X20	Y20	Z20	X21	Y21	Z21	X22	Y22	Z22	X23	Y23	Z23	X24	Y24	Z24	X25	Y25	Z25	X26	Y26	Z26	X27	Y27	Z27	X28	Y28	Z28	X29	Y29	Z29	X30	Y30	Z30	X31	Y31	Z31	X32	Y32	Z32	X33	Y33	Z33	X34	Y34	Z34	X35	Y35	Z35	X36	Y36	Z36

847	7.05000	-2936.36035	1062.65967	290.78528	-3159.50220	1023.19891	372.81635	-3192.66577	677.94031	407.33987	-3215.13281	640.74548	405.68314	-3245.98120	707.71436	403.42413	-3264.08105	667.02539	403.89249	-3279.89111	553.34448	392.83432	-3292.04517	556.50391	253.09294	-3287.83765	446.84427	397.28235	-3310.08057	409.77039	395.58389	-3343.72192	472.30145	384.49078	-3357.67139	431.45984	383.20023	-3404.95215	141.32471	361.88510	-3420.99316	150.35213	275.92987	-3338.94214	88.20123	307.49756	-3551.70410	130.15610	394.83597	-3593.20068	159.03455	332.38348	-3580.87524	139.53920	288.61053	-2933.49365	1053.37158	184.63454	0.00000	0.00000	0.00000	-2988.97607	739.95844	52.10281	-2985.56689	697.85071	54.59163	-3050.63647	730.48822	47.08883	-3037.53394	683.89716	52.25869	-3001.31299	552.54266	78.00840	-3012.97778	545.80011	193.51219	-2959.59546	342.44977	75.66355	-2947.69336	295.21863	80.76814	-2900.05249	354.06641	82.51067	-2898.88623	306.00949	89.06232	-2887.77051	112.02763	81.03905	-2918.91309	115.39896	213.04498	-2817.41797	71.09836	158.56807	-3040.17749	58.00507	192.87119	-3064.04785	80.21291	145.57513	-3029.30566	55.59555	72.69736
848	7.05833	-2946.20679	1060.42554	291.40710	-3169.39014	1020.90137	373.59720	-3199.13867	673.23975	406.70721	-3221.07471	635.73254	404.31876	-3252.78687	702.71442	402.74106	-3270.48779	661.92810	402.46368	-3283.97510	550.07477	391.17850	-3297.82495	552.50909	251.69284	-3295.53931	442.97464	396.10263	-3319.13818	407.14090	394.65036	-3350.67871	470.29303	383.95212	-3366.13330	430.09109	382.94803	0.00000	0.00000	0.00000	-3439.76221	151.54857	276.98248	-3357.71802	87.78659	308.19174	-3570.19678	135.82822	397.83060	-3611.33325	166.01234	335.88504	-3600.52563	146.21196	291.98193	-2943.37646	1051.33728	185.26816	0.00000	0.00000	0.00000	-2995.05029	739.83746	52.14652	-2990.71387	697.66614	53.78180	-3057.99194	729.46906	47.57933	-3044.64233	683.16583	52.79708	-3005.71484	551.18719	78.86961	-3018.50806	544.82568	194.30632	-2962.43335	342.36392	75.82970	-2950.18091	295.35147	80.92068	-2904.08252	354.11429	82.79184	-2900.50000	307.66568	89.89398	-2888.18018	112.51382	80.88634	-2919.83667	115.68507	213.12473	-2817.57593	72.01511	158.65109	-3040.29370	57.71304	192.88574	-3064.21362	79.89794	145.60483	-3028.69873	55.21781	73.17496
849	7.06667	-2955.10498	1058.42944	292.07224	-3179.44751	1018.61938	374.44019	-3205.47803	668.69025	405.43503	-3227.11694	630.91797	402.56180	-3259.43164	697.70520	401.47003	-3276.81592	656.98749	400.72546	-3287.21680	545.10724	389.69962	-3303.56567	548.65918	250.03726	-3302.81396	439.49332	394.64606	-3327.88379	405.30371	393.39111	-3357.36230	468.47702	383.17395	0.00000	0.00000	0.00000	0.00000	0.00000	0.00000	-3457.75024	153.87155	278.72925	-3374.63574	87.50616	308.96625	-3586.51465	141.17807	401.07697	-3627.57812	172.73195	339.69113	-3618.09082	152.59085	295.70062	-2953.56445	1049.15100	185.93785	0.00000	0.00000	0.00000	-3002.85938	739.35242	52.65492	-3000.22363	697.03516	55.18614	-3065.48779	728.44312	48.17392	-3051.64575	682.49243	53.27562	-3010.86182	550.54456	79.13625	-3023.53931	544.27765	194.24332	-2967.55273	342.04114	76.52170	-2952.86548	295.48468	81.07922	-2906.02783	354.98444	83.14721	-2902.36279	307.70938	89.62696	-2888.82788	113.09168	81.00760	-2920.56567	115.94473	213.15805	-2818.06177	72.82839	158.81383	-3040.45825	57.41269	192.93080	-3064.37573	79.57531	145.66287	-3029.11475	55.21027	72.97136
850	7.07500	-2966.06812	1055.91187	292.96423	-3189.50024	1016.37372	375.38290	-3211.72729	664.18970	403.76276	-3232.83838	626.23230	400.33295	-3265.73853	692.62433	399.66211	-3282.76367	651.93402	398.74686	-3292.51172	541.62054	387.37875	-3309.62476	545.11737	248.23096	-3309.73633	436.25763	393.03369	-3334.76782	401.32965	392.85449	-3365.37720	467.31961	382.84119	-3383.74756	428.72330	384.26065	0.00000	0.00000	0.00000	-3474.87231	152.18173	278.83612	-3389.62061	87.07867	309.83499	-3600.61963	146.04219	404.34500	-3641.19067	178.44122	343.58810	-3633.45361	158.52432	299.48459	-2963.61401	1046.96057	186.71080	0.00000	0.00000	0.00000	-3010.16577	739.22870	53.03274	-3008.74121	695.71057	56.14939	-3072.88818	727.31439	48.72432	0.00000	0.00000	0.00000	0.00000	0.00000	0.00000	-3029.34888	543.31085	195.23744	-2967.29028	340.38589	76.32779	-2955.47339	295.52222	81.38818	-2908.69873	355.73993	83.21194	-2905.63403	308.73633	90.48096	-2889.41724	113.59743	81.05962	-2921.22705	116.15595	213.21147	-2818.54541	73.86398	158.90004	-3040.56274	57.10363	192.98624	-3064.49976	79.23943	145.67061	-3029.27783	55.22722	72.77310
851	7.08333	-2976.27710	1053.60144	293.85968	-3199.64990	1014.23547	376.39453	-3217.89111	659.97559	401.88821	-3238.72974	621.84589	398.01566	-3271.80273	687.88257	397.80804	-3286.48877	646.35815	395.24780	-3296.24561	538.03619	385.19037	-3316.24146	541.84979	246.42931	-3316.50049	433.11444	391.37585	-3342.69824	399.57675	390.72708	-3370.20117	465.35040	380.42368	-3387.76294	425.99695	380.48367	0.00000	0.00000	0.00000	-3488.50610	153.38640	279.77432	-3402.44946	85.86900	310.42880	-3612.22485	150.34195	407.44254	-3652.70190	184.02849	347.22006	-3646.28906	163.65096	303.05130	-2973.94336	1044.75574	187.50700	0.00000	0.00000	0.00000	-3017.93628	738.83362	53.77718	-3014.62817	695.98444	56.51984	-3078.85059	724.47314	49.67399	-3067.08374	681.07953	55.23047	-3021.93530	549.19208	79.88819	-3034.95093	542.75128	195.44989	-2972.94287	341.09518	76.63609	-2958.51221	295.72690	81.68429	-2912.69141	356.10693	83.71951	-2908.14966	308.79807	90.32336	-2890.08203	114.27227	81.18333	-2922.22534	116.41045	213.30106	-2818.94263	74.94328	159.09280	-3040.55176	56.81348	193.00845	-3064.64062	78.94385	145.67950	-3029.47144	55.08050	72.83249
852	7.09167	-2985.49243	1051.74817	294.68527	-3209.85767	1012.17975	377.41299	0.00000	0.00000	0.00000	-3244.62964	618.00879	395.72791	-3278.15576	683.81897	396.68030	-3292.99731	642.30450	393.86237	-3302.43701	535.43695	383.35162	-3323.36963	538.62433	244.84090	-3323.12866	429.83456	389.74429	-3348.76465	396.05658	389.68042	-3378.03394	462.64084	381.03094	0.00000	0.00000	0.00000	0.00000	0.00000	0.00000	-3497.74878	152.09744	280.55344	-3412.79150	83.43788	310.32693	-3620.95874	153.83119	410.07263	-3661.80688	189.12767	350.57547	-3656.55615	167.91055	306.29608	-2984.27612	1042.50928	188.38832	0.00000	0.00000	0.00000	-3025.77881	738.43018	54.65590	-3022.66382	695.41022	57.43572	-3086.94189	723.63031	50.50169	-3074.15137	680.18146	55.93515	0.00000	0.00000	0.00000	-3040.86035	541.91309	196.06461	-2974.73779	341.45419	76.51843	-2961.44678	295.85956	82.05915	-2916.06226	356.78143	84.13081	-2911.05713	309.44189	90.73283	-2891.53003	115.57024	81.83411	-2923.20776	116.84308	213.44559	-2817.84058	76.84511	159.28398	-3040.64844	56.54749	193.11008	-3064.90698	78.76368	145.70624	-3029.48853	55.02336	72.75595
853	7.10000	-2996.69922	1049.27588	295.76645	-3218.78467	1009.87830	378.03146	-3230.00171	651.67267	395.79050	-3250.95776	614.82733	393.86844	0.00000	0.00000	0.00000	-3299.58765	638.64325	392.87585	-3308.95605	531.42346	381.73224	-3331.25708	535.69983	243.66296	-3330.10205	426.54944	388.29333	-3356.22681	392.65485	388.86359	-3384.82690	459.60361	380.22568	-3401.46899	420.84418	378.99277	0.00000	0.00000	0.00000	-3506.75684	145.95416	280.91324	-3420.77246	79.47501	309.53305	-3626.75659	156.52507	412.00165	-3667.40576	192.72005	352.98117	-3664.21704	171.07689	308.97104	-2994.51245	1040.40845	189.32973	0.00000	0.00000	0.00000	-3033.43970	738.02466	55.56769	-3029.30615	695.17535	58.26633	-3094.89917	722.70148	51.31389	-3081.40918	679.28149	56.64348	0.00000	0.00000	0.00000	-3047.25757	540.84784	197.25452	-2979.66772	340.20117	75.92664	-2964.63135	296.14450	82.32005	-2919.77441	357.41229	84.46921	-2915.11841	310.58481	91.31249	-2892.41016	116.55426	81.97017	-2924.05566	117.29788	213.48915	-2818.93213	77.90513	159.44644	-3040.79150	56.27237	193.20680	-3065.09961	78.52727	145.70444	-3029.65430	54.98236	72.67984
854	7.10833	-3006.91870	1047.21289	296.65927	-3229.12256	1008.04095	379.15918	-3237.88550	649.02167	395.02249	-3258.35962	611.96912	392.97345	-3293.60815	677.88336	396.83517	-3307.09229	635.47815	392.58395	-3316.30078	528.57257	381.02692	-3339.81836	533.05420	242.95731	-3336.99805	423.21606	387.07422	-3362.81958	389.97461	387.19022	-3391.85547	456.31973	379.65186	-3408.40186	417.45517	378.32706	0.00000	0.00000	0.00000	-3514.45728	143.80557	278.86844	-3426.99780	77.28806	312.18723	0.00000	0.00000	0.00000	-3671.18262	193.20766	354.05685	0.00000	0.00000	0.00000	-3004.77393	1038.32275	190.25325	0.00000	0.00000	0.00000	-3043.33716	736.70795	57.32184	-3036.60034	694.84259	59.27494	-3100.82007	723.27893	50.94463	-3088.73706	678.42499	57.39156	0.00000	0.00000	0.00000	-3053.74829	540.07916	197.95891	-2984.64893	341.69836	78.13740	-2967.78442	296.34583	82.63097	-2923.09619	358.31824	84.60412	-2917.46436	310.94614	91.45840	-2893.44556	117.59803	82.10026	-2925.10620	117.83073	213.57178	-2819.50391	79.48275	159.45447	-3040.91577	56.03164	193.29883	-3065.33179	78.31136	145.74780	-3029.88574	54.94878	72.60835
